PathFileType	4	(X/Y/Z)	c:/Users/goper/Files/vsCode/490R/osim_files/A05/A05_Static01.trc
DataRate	CameraRate	NumFrames	NumMarkers	Units                	OrigDataRate	OrigDataStartFrame	OrigNumFrames
250.00	250.00	9	36	mm	250.0	2189	3502
                Frame#	Time	LPSIS			LASIS			LTH1			LTH2			LTH3			LTH4			LLFE			LMFE			LSH1			LSH2			LSH3			LSH4			LLMAL			LMMAL			LCAL			LMTP5			LTOE			LMTP1			RPSIS			RASIS			RTH1			RTH2			RTH3			RTH4			RLFE			RMFE			RSH1			RSH2			RSH3			RSH4			RLMAL			RMMAL			RCAL			RMTP1			RTOE			RMTP5		
		X1	Y1	Z1	X2	Y2	Z2	X3	Y3	Z3	X4	Y4	Z4	X5	Y5	Z5	X6	Y6	Z6	X7	Y7	Z7	X8	Y8	Z8	X9	Y9	Z9	X10	Y10	Z10	X11	Y11	Z11	X12	Y12	Z12	X13	Y13	Z13	X14	Y14	Z14	X15	Y15	Z15	X16	Y16	Z16	X17	Y17	Z17	X18	Y18	Z18	X19	Y19	Z19	X20	Y20	Z20	X21	Y21	Z21	X22	Y22	Z22	X23	Y23	Z23	X24	Y24	Z24	X25	Y25	Z25	X26	Y26	Z26	X27	Y27	Z27	X28	Y28	Z28	X29	Y29	Z29	X30	Y30	Z30	X31	Y31	Z31	X32	Y32	Z32	X33	Y33	Z33	X34	Y34	Z34	X35	Y35	Z35	X36	Y36	Z36

2189	8.75200	158.82971	995.19708	397.77744	342.72180	966.03430	264.54971	217.96094	691.03168	239.42810	229.86546	648.98486	237.59656	274.69745	701.40131	217.26561	279.50192	658.27081	220.09628	295.10727	480.44333	241.48236	301.75818	475.67773	340.58469	255.74138	386.99124	232.98027	249.15210	340.35422	231.58611	314.17847	375.96655	241.67349	302.13733	332.35025	236.68805	255.43376	116.80673	232.97504	260.88528	119.17280	322.72495	174.32776	66.12726	289.86664	380.49506	49.59972	200.20074	434.80164	71.04533	259.06552	395.67245	63.74923	308.85815	171.27884	997.36554	479.94827	358.85837	976.98657	579.77814	320.91757	628.34644	619.99237	332.54565	588.59674	611.47717	380.29633	642.54388	604.15820	383.09796	595.74414	595.09039	307.45895	516.94147	598.97919	338.21918	501.63196	462.73590	219.05092	269.46841	578.83240	211.58707	225.40517	568.89130	279.13342	253.64040	579.91925	259.87030	208.59448	572.60706	198.83215	111.49236	544.30212	251.06781	134.84981	461.87900	152.83626	70.10455	452.63058	363.41467	59.02620	491.01663	384.18063	65.89294	550.10156	307.56830	42.28671	598.02112
2190	8.75600	158.85390	995.18701	397.83655	342.71860	966.01190	264.54712	217.96048	691.05927	239.42407	229.87987	649.03162	237.59541	274.70193	701.39642	217.26143	279.48987	658.27655	220.11121	295.10919	480.41946	241.50429	301.76764	475.68048	340.61606	255.70790	386.98053	233.01541	249.16423	340.35687	231.59482	314.21985	376.03384	241.69492	302.14267	332.36542	236.69577	255.42966	116.81797	232.98700	260.83661	119.14789	322.72232	174.33165	66.09359	289.88889	380.51480	49.62842	200.20290	434.79144	71.03473	259.05206	395.67123	63.74611	308.85834	171.24109	997.42365	479.98581	358.84888	976.96094	579.77258	320.90198	628.33923	620.01782	332.56046	588.61011	611.48309	380.28958	642.51697	604.16254	383.04501	595.71704	595.12189	307.46121	516.93280	598.98901	338.24161	501.65167	462.74103	219.01418	269.46667	578.85870	211.44835	225.29564	568.83118	279.10077	253.62215	579.92798	259.82321	208.58568	572.60559	198.80359	111.46563	544.32617	251.05482	134.84351	461.89963	152.80051	70.11945	452.63358	363.39114	59.00058	491.03729	384.16568	65.87951	550.10815	308.38467	43.05592	597.85260
2191	8.76000	158.92603	995.18494	397.84058	342.72528	965.98560	264.53806	217.96382	691.09045	239.44148	229.87360	649.03992	237.62440	274.70370	701.39288	217.26103	279.47485	658.28040	220.12924	295.11462	480.45108	241.50392	301.78830	475.68988	340.61124	255.72150	387.00403	233.02094	249.16095	340.36987	231.61069	314.15723	375.97345	241.69489	302.14813	332.38544	236.69347	255.42111	116.83112	232.99702	260.84555	119.14494	322.71326	174.29778	66.09367	289.92090	380.51266	49.64102	200.18416	434.76859	71.02708	259.06674	395.67783	63.75851	308.87253	171.29724	997.41394	479.97037	358.85657	976.98511	579.77087	320.91061	628.35535	620.02960	332.50821	588.58246	611.48322	380.25476	642.51038	604.17694	383.00378	595.70184	595.12323	307.42053	516.93048	598.99847	338.20874	501.64792	462.72955	219.00537	269.49271	578.87946	211.38394	225.27748	568.79938	279.09534	253.61987	579.92468	259.80347	208.57899	572.60901	198.75128	111.46709	544.30475	251.06458	134.86749	461.89499	152.78745	70.12764	452.65958	363.38693	59.03086	491.02582	384.15216	65.87558	550.11725	308.21426	43.04128	597.79303
2192	8.76400	158.89572	995.23456	397.87408	342.69702	965.97821	264.54388	217.95390	691.11768	239.43268	229.90189	649.06934	237.61154	274.70300	701.39032	217.26436	279.45825	658.28253	220.14926	295.10046	480.44687	241.53870	301.75784	475.65024	340.60919	255.74940	387.03223	233.01970	249.15686	340.39285	231.60229	314.22729	376.04785	241.71295	302.15717	332.38675	236.71790	255.40660	116.80943	233.01480	260.84308	119.15936	322.72308	174.25246	66.12287	289.96292	380.51306	49.64566	200.19539	434.78174	71.06348	259.05841	395.65100	63.74235	308.86490	171.32210	997.41418	479.97269	358.85056	976.96881	579.77515	320.88733	628.36334	620.02075	332.51004	588.59790	611.48602	380.28104	642.51746	604.17200	382.98691	595.69275	595.11230	307.41086	516.90979	598.97522	338.24908	501.68781	462.73077	219.02934	269.51773	578.91949	211.39406	225.30075	568.81183	279.07922	253.61594	579.92474	259.81024	208.59039	572.61267	198.79935	111.49403	544.33466	251.03885	134.85902	461.90726	152.75961	70.10579	452.69962	363.39337	59.03429	491.03760	384.14859	65.89179	550.13959	308.21643	43.04443	597.78265
2193	8.76800	158.84349	995.24152	397.93970	342.71692	965.99304	264.53711	217.95023	691.14447	239.44878	229.89647	649.11066	237.62985	274.69998	701.38885	217.27138	279.44141	658.28296	220.17007	295.12152	480.47983	241.52983	301.76755	475.66333	340.61539	255.73018	387.04996	232.99586	249.14789	340.39673	231.60272	314.19662	376.03912	241.72275	302.15573	332.40491	236.71643	255.43738	116.86572	233.00032	260.89645	119.18401	322.71622	174.23215	66.16511	290.01932	380.49231	49.63596	200.21519	434.82657	71.08580	259.04416	395.65668	63.77320	308.87891	171.36012	997.41443	479.98047	358.90125	976.99756	579.75781	320.90735	628.35077	620.02759	332.55960	588.61920	611.46838	380.30148	642.54132	604.17908	383.05145	595.72845	595.10406	307.43668	516.93573	598.98785	338.22269	501.67953	462.73367	219.07016	269.55145	578.90192	211.50687	225.39552	568.86237	279.08289	253.61569	579.92023	259.85403	208.60858	572.61523	198.87817	111.55840	544.34955	251.05293	134.85875	461.90247	152.76920	70.12291	452.69778	363.40903	59.07284	491.01712	384.20255	65.92847	550.11694	308.28098	43.09946	597.79620
2194	8.77200	158.89687	995.21649	397.94003	342.71671	966.00165	264.54282	217.95439	691.16858	239.49249	229.86270	649.09961	237.68602	274.69479	701.38818	217.28212	279.42566	658.28186	220.19044	295.11551	480.50003	241.52713	301.76239	475.66016	340.62350	255.73198	387.04568	233.01971	249.14908	340.42886	231.61655	314.20886	376.04483	241.74283	302.17026	332.42331	236.71835	255.43275	116.88984	232.99083	260.92496	119.22016	322.72363	174.24858	66.20122	290.08551	380.48996	49.65621	200.21887	434.86389	71.11314	259.06918	395.71353	63.81314	308.86322	171.31995	997.43036	480.01981	358.94577	977.00507	579.76086	320.93289	628.35431	620.01923	332.54407	588.60681	611.47192	380.34158	642.55408	604.17816	383.07092	595.75342	595.09943	307.46704	516.94391	598.99017	338.23108	501.69101	462.74637	219.09392	269.55188	578.92847	211.57812	225.44447	568.89465	279.12122	253.65056	579.91211	259.84152	208.59927	572.60089	198.88600	111.51338	544.31696	251.06131	134.88048	461.90900	152.76750	70.11938	452.71567	363.41541	59.08205	491.03131	384.19379	65.96008	550.10876	308.30753	43.10126	597.78265
2195	8.77600	158.91469	995.19958	397.92615	342.72717	966.00159	264.51636	217.93446	691.17859	239.47647	229.87698	649.12317	237.65913	274.68762	701.38837	217.29652	279.41232	658.27942	220.20920	295.10110	480.49210	241.54765	301.74326	475.61993	340.63245	255.74413	387.10226	233.04726	249.17384	340.43137	231.63309	314.21634	376.07657	241.76257	302.15509	332.41571	236.73373	255.41660	116.87198	233.00954	260.91965	119.21631	322.71317	174.23863	66.20773	290.13162	380.49973	49.65064	200.22675	434.85291	71.11855	259.06561	395.69940	63.79078	308.86255	171.28311	997.44403	480.02496	358.97073	977.01227	579.77283	320.93304	628.32349	620.01953	332.56671	588.61346	611.49475	380.31421	642.53241	604.19043	383.05701	595.74426	595.11102	307.45972	516.91406	598.99603	338.20139	501.67288	462.76123	219.13196	269.50638	578.92804	211.65027	225.46341	568.94525	279.10568	253.65137	579.92188	259.88226	208.60310	572.59546	198.90414	111.49213	544.34119	251.03183	134.85915	461.90530	152.74751	70.14314	452.71915	363.43527	59.07713	491.04352	384.18674	65.94032	550.12305	308.26968	43.07084	597.78851
2196	8.78000	158.87241	995.17889	398.02167	342.71588	965.99445	264.51987	217.92946	691.18329	239.50420	229.85231	649.11353	237.68591	274.67862	701.38916	217.31458	279.40271	658.27563	220.22517	295.07965	480.49863	241.56444	301.75220	475.62695	340.65588	255.73656	387.11261	233.04391	249.14771	340.43683	231.63203	314.19131	376.07083	241.76180	302.15094	332.43347	236.76019	255.39873	116.90079	233.03067	260.89230	119.18780	322.73071	174.21086	66.19020	290.15976	380.48721	49.66245	200.24022	434.82645	71.09861	259.07159	395.68283	63.78025	308.88171	171.37297	997.44830	480.01401	358.98856	977.02283	579.80048	320.92526	628.32111	620.05316	332.57254	588.59686	611.52264	380.29544	642.51685	604.19427	383.00894	595.70850	595.13940	307.44986	516.91150	599.01080	338.20505	501.68423	462.76993	219.05957	269.44086	578.91858	211.55865	225.33733	568.92010	279.10486	253.64484	579.92145	259.85217	208.55797	572.60736	198.86526	111.47164	544.35822	251.01758	134.85956	461.92062	152.74377	70.14033	452.73495	363.41241	59.06770	491.04343	384.19946	65.94382	550.14197	308.31247	43.07500	597.83228
2197	8.78400	158.89597	995.13947	397.96829	342.70816	965.96472	264.53290	217.92229	691.17523	239.52817	229.86011	649.09467	237.69263	274.66797	701.39050	217.33630	279.39825	658.27075	220.23712	295.08292	480.49228	241.56572	301.76572	475.62451	340.63757	255.77528	387.12033	233.05060	249.12250	340.42032	231.64282	314.19031	376.07370	241.78523	302.14883	332.40704	236.73715	255.39737	116.87444	233.02426	260.86850	119.17164	322.74963	174.19234	66.16457	290.17642	380.49527	49.64669	200.23215	434.79147	71.06881	259.09409	395.65366	63.75662	308.89392	171.36470	997.45801	480.00735	358.90060	976.97235	579.78754	320.89502	628.31671	620.06519	332.52707	588.57251	611.52875	380.28384	642.50739	604.22162	383.00394	595.68756	595.16040	307.39874	516.89514	599.03052	338.16467	501.67578	462.76480	219.03651	269.42111	578.94720	211.47765	225.27884	568.90613	279.04779	253.61462	579.94122	259.82907	208.54660	572.62042	198.85298	111.42482	544.38574	251.00034	134.84773	461.91211	152.74861	70.13659	452.71835	363.39713	59.05125	491.05798	384.18179	65.93732	550.15271	308.23343	42.99925	597.81348
